Coordinates
version=1
nRows=14
nColumns=36
inDegrees=yes

Units are S.I. units (second, meters, Newtons, ...)
If the header above contains a line with 'inDegrees', this indicates whether rotational values are in degrees (yes) or radians (no).

endheader
time	pelvis_tilt	pelvis_list	pelvis_rotation	pelvis_tx	pelvis_ty	pelvis_tz	hip_flexion_r	hip_adduction_r	hip_rotation_r	knee_angle_r	knee_angle_r_beta	ankle_angle_r	subtalar_angle_r	mtp_angle_r	hip_flexion_l	hip_adduction_l	hip_rotation_l	knee_angle_l	knee_angle_l_beta	ankle_angle_l	subtalar_angle_l	mtp_angle_l	lumbar_extension	lumbar_bending	lumbar_rotation	arm_flex_r	arm_add_r	arm_rot_r	elbow_flex_r	pro_sup_r	arm_flex_l	arm_add_l	arm_rot_l	elbow_flex_l	pro_sup_l
      5.58333330	     -6.62999108	      2.57770979	     -3.06456581	     -0.02856968	      1.31662823	     -0.06703997	      1.88596461	      0.90819055	      0.39424547	      1.12857099	      0.01969728	      9.09756785	    -12.36917380	     -7.49999987	      2.34629139	      0.29430263	     -3.81162612	      0.70900780	      0.01237452	     14.98802050	      7.07066736	     -7.49999987	      5.57704501	      1.13741495	      1.23665174	     -1.42199859	     -5.17860179	      8.78076472	     25.93663376	     82.00964853	      0.25981346	     -3.50058951	      3.54152692	     24.54402916	     85.60018266
      5.60000000	     -6.54223788	      2.49291806	     -3.01489225	     -0.02680538	      1.31223163	     -0.06815449	      1.81050030	      0.98343250	      0.48851626	      1.21156408	      0.02114578	      9.28738897	    -12.46409750	     -7.49999987	      2.25924718	      0.20258370	     -3.71521547	      0.77083516	      0.01345361	     15.15380456	      7.09412817	     -7.49999987	      5.64077360	      1.20040392	      1.14090982	     -1.59556434	     -5.25457229	      8.76673111	     25.89709520	     82.00526249	      0.19686709	     -3.45151368	      3.55833941	     24.55671566	     85.60723727
      5.61666670	     -6.48267532	      2.42786681	     -2.97538855	     -0.02886327	      1.31534402	     -0.06772208	      1.77102127	      1.05917535	      0.67400152	      1.27313030	      0.02222032	      9.49030469	    -12.56683519	     -7.49999987	      2.22929689	      0.11733864	     -3.67584502	      0.83517477	      0.01457655	     15.44944371	      7.36959691	     -7.49999987	      5.62428735	      1.25952640	      1.05456161	     -1.71043443	     -5.27000263	      8.30172013	     26.11204739	     81.85872006	      0.14031848	     -3.42179215	      3.39780431	     24.78853819	     85.81016935
      5.63333330	     -6.36530510	      2.38707224	     -2.89940545	     -0.02742948	      1.31713258	     -0.06731314	      1.65127994	      1.09220354	      0.73030532	      1.31676213	      0.02298183	      9.58249006	    -12.57438237	     -7.49999987	      2.16132476	      0.07878771	     -3.59755635	      0.90921712	      0.01586883	     15.52592340	      7.33169425	     -7.49999987	      5.60481314	      1.25898391	      0.91709338	     -1.77526566	     -5.32158648	      8.29562140	     26.08175100	     82.03004152	      0.05027475	     -3.45507567	      3.44783696	     24.85754901	     86.02727124
      5.65000000	     -6.27037277	      2.37588137	     -2.90345654	     -0.02492339	      1.32447198	     -0.06593920	      1.53701828	      1.12550058	      0.90675457	      1.34298032	      0.02343943	      9.58679762	    -12.44190534	     -7.49999987	      2.01364774	      0.03145307	     -3.62262934	      0.97593779	      0.01703333	     15.44120448	      7.33310041	     -7.49999987	      5.72756417	      1.20899246	      0.89457937	     -1.96414555	     -5.29647519	      8.29103740	     26.03662207	     82.02794276	     -0.13897715	     -3.49928683	      3.44267738	     24.79574450	     86.02857223
      5.66666670	     -6.23202163	      2.35877704	     -2.83593337	     -0.02808885	      1.31983262	     -0.06716868	      1.48170741	      1.12704293	      0.99317730	      1.34469757	      0.02346940	      9.60813083	    -12.37958234	     -7.49999987	      1.99169238	      0.01280082	     -3.65849220	      1.02244787	      0.01784508	     15.42386227	      7.30780996	     -7.49999987	      5.74362362	      1.16596994	      0.88269479	     -2.02652717	     -5.35613832	      8.27469000	     26.01078276	     82.02527203	     -0.22849399	     -3.51918694	      3.44048613	     24.75635909	     86.02906052
      5.68333330	     -5.94341241	      2.36188997	     -2.81556741	     -0.02928438	      1.31967021	     -0.06667987	      1.15717004	      1.10128325	      0.86103988	      1.33568225	      0.02331205	      9.99101937	    -11.76003004	     -7.49999987	      1.73661116	      0.02180700	     -3.62376648	      1.11101508	      0.01939087	     15.37993221	      7.22686940	     -7.49999987	      5.47130074	      1.12396297	      0.78250314	     -2.01369751	     -5.27395494	      7.63753042	     25.92524079	     82.48066659	     -0.23013081	     -3.52577917	      3.23595622	     24.47177416	     86.10676718
      5.70000000	     -5.99816954	      2.35929224	     -2.86515138	     -0.02858951	      1.32146065	     -0.06669629	      1.26084309	      1.11598779	      1.12503454	      1.37575990	      0.02401154	      9.98923576	    -11.78828697	     -7.49999987	      1.85301513	     -0.00529673	     -3.87287378	      1.20316150	      0.02099913	     15.39275671	      7.44314584	     -7.49999987	      5.57605461	      1.11136966	      0.85037987	     -2.11556774	     -5.27043212	      7.34737068	     25.97539661	     81.74083139	     -0.26392931	     -3.56770890	      3.46068529	     24.22950106	     85.47249312
      5.71666670	     -5.98871516	      2.34852186	     -2.81814068	     -0.03028048	      1.31975405	     -0.06690931	      1.32184216	      1.11383853	      1.09645830	      1.42332249	      0.02484166	     10.25657605	    -11.41640600	     -7.49999987	      1.95043982	     -0.00861576	     -3.67174799	      1.28651769	      0.02245397	     15.34722944	      7.22419155	     -7.49999987	      5.53807258	      1.10280279	      0.66095461	     -1.96865493	     -5.33107614	      7.55539667	     25.80569182	     82.52814082	     -0.34920761	     -3.56637098	      2.95906552	     24.13181037	     86.16592563
      5.73333330	     -6.61534807	      2.40030056	     -2.75075058	     -0.03140380	      1.31909050	     -0.06764910	      2.47877179	      1.07628885	      1.00312953	      2.15815603	      0.03766693	     10.69501986	    -11.04407047	     -7.49999987	      3.07372745	     -0.01074763	     -3.63488431	      2.03244800	      0.03547291	     15.48461654	      6.89259920	     -7.49999987	      6.16412881	      1.08247902	      0.58584365	     -2.01551463	     -5.61971948	      9.76702232	     26.12783925	     74.04113664	     -0.46938250	     -3.82898931	      5.53129075	     24.31288169	     76.98163849
      5.75000000	     -6.22035328	      2.40039512	     -2.69018732	     -0.03060944	      1.31896060	     -0.06797360	      1.80839837	      1.05289506	      1.34957457	      1.57277570	      0.02745011	     10.35461553	    -11.24993428	     -7.49999987	      2.40873418	      0.04841199	     -3.54173664	      1.53626924	      0.02681296	     15.27729067	      7.01316262	     -7.49999987	      5.74726521	      1.05543472	      0.58855158	     -2.02135562	     -5.36882731	      7.19331530	     25.72661994	     82.26272735	     -0.28117391	     -3.65357238	      3.53061382	     23.63243648	     85.69720803
      5.76666670	     -6.16901220	      2.41638909	     -2.63456300	     -0.03082460	      1.31936389	     -0.06800942	      1.83355352	      1.00215472	      1.31441172	      1.68715247	      0.02944637	     10.44016006	    -11.03529410	     -7.49999987	      2.43482536	      0.07495630	     -3.55708167	      1.64740383	      0.02875262	     15.27518442	      7.01916212	     -7.49999987	      5.61278567	      1.03739700	      0.41099534	     -1.93097095	     -5.42590974	      7.24446795	     25.68269020	     82.66259512	     -0.33862907	     -3.60746491	      2.89350740	     23.64503931	     86.04716365
      5.78333330	     -6.10456182	      2.42766347	     -2.66998336	     -0.02561778	      1.32157525	     -0.06724545	      1.76453336	      0.96236803	      1.29986345	      1.72410064	      0.03009123	     10.31481399	    -10.98161962	     -7.49999987	      2.31610097	      0.08166036	     -3.66617113	      1.72034363	      0.03002566	     15.23675061	      6.98951389	     -7.49999987	      5.62534013	      1.01725737	      0.33766936	     -2.11381524	     -5.43736477	      7.22371710	     25.64360536	     82.65659652	     -0.51868011	     -3.62571664	      2.88373695	     23.56740580	     86.04673027
      5.80000000	     -6.05359509	      2.44686540	     -2.79149625	     -0.02736067	      1.32582646	     -0.06683982	      1.62963682	      0.91173771	      1.21757758	      1.71623264	      0.02995391	     10.01500993	    -10.82383008	     -7.49999987	      2.14283875	      0.11043275	     -3.90940361	      1.66285568	      0.02902231	     15.06007329	      6.91318080	     -7.49999987	      5.66631550	      0.99880185	      0.28622858	     -2.24434716	     -5.43445489	      7.18282405	     25.59774895	     82.64899917	     -0.68041940	     -3.64666225	      2.84293360	     23.43965677	     86.03976112
